<svg height="464pt" viewBox="0 0 464 464" width="464pt" xmlns="http://www.w3.org/2000/svg"><path d="m272 96h152v56h-152zm0 0" fill="#57646f"/><path d="m272 200h152v56h-152zm0 0" fill="#57646f"/><path d="m272 304h152v56h-152zm0 0" fill="#57646f"/><path d="m272 40h160c17.671875 0 32 14.328125 32 32s-14.328125 32-32 32h-160zm0 0" fill="#798b9b"/><path d="m312 64h16v16h-16zm0 0" fill="#ffc119"/><path d="m344 64h16v16h-16zm0 0" fill="#ffc119"/><path d="m272 144h160c17.671875 0 32 14.328125 32 32s-14.328125 32-32 32h-160zm0 0" fill="#798b9b"/><path d="m312 168h16v16h-16zm0 0" fill="#ffc119"/><path d="m344 168h16v16h-16zm0 0" fill="#ffc119"/><path d="m272 248h160c17.671875 0 32 14.328125 32 32s-14.328125 32-32 32h-160zm0 0" fill="#798b9b"/><path d="m312 272h16v16h-16zm0 0" fill="#ffc119"/><path d="m344 272h16v16h-16zm0 0" fill="#ffc119"/><path d="m272 352h160c17.671875 0 32 14.328125 32 32s-14.328125 32-32 32h-160zm0 0" fill="#798b9b"/><path d="m312 376h16v16h-16zm0 0" fill="#ffc119"/><path d="m344 376h16v16h-16zm0 0" fill="#ffc119"/><path d="m405.398438 464c-7.984376-.019531-15.070313-5.136719-17.597657-12.710938l-11.800781-35.289062h48v29.398438c0 10.273437-8.328125 18.601562-18.601562 18.601562zm0 0" fill="#57646f"/><path d="m24 0h240c13.253906 0 24 10.746094 24 24v416c0 13.253906-10.746094 24-24 24h-240c-13.253906 0-24-10.746094-24-24v-416c0-13.253906 10.746094-24 24-24zm0 0" fill="#0093ba"/><path d="m120 24h16v16h-16zm0 0" fill="#ccdce5"/><path d="m152 24h16v16h-16zm0 0" fill="#ccdce5"/><path d="m136 424h16v16h-16zm0 0" fill="#ccdce5"/><path d="m216 144h32v104h-176v-32zm0 0" fill="#faac2b"/><g fill="#06687f"><path d="m48 304h16v16h-16zm0 0"/><path d="m80 304h176v16h-176zm0 0"/><path d="m32 336h224v16h-224zm0 0"/><path d="m32 368h192v16h-192zm0 0"/></g><path d="m40 216v-128h48l24 24h104v104zm0 0" fill="#ffc119"/><path d="m288 40h16v64h-16zm0 0" fill="#57646f"/><path d="m288 104h16v40h-16zm0 0" fill="#354f5c"/><path d="m288 208h16v40h-16zm0 0" fill="#354f5c"/><path d="m288 312h16v40h-16zm0 0" fill="#354f5c"/><path d="m288 144h16v64h-16zm0 0" fill="#57646f"/><path d="m288 248h16v64h-16zm0 0" fill="#57646f"/><path d="m288 352h16v64h-16zm0 0" fill="#57646f"/></svg>